<svg width="278" height="58" viewBox="0 0 278 58" fill="none" xmlns="http://www.w3.org/2000/svg">
<path d="M9.93189 29.714C8.39189 29.714 6.87989 29.504 5.39589 29.084C3.91189 28.664 2.69389 28.062 1.74189 27.278C0.817891 26.494 0.355891 25.598 0.355891 24.59V20.096H1.11189C1.58789 22.896 2.51189 24.926 3.88389 26.186C5.25589 27.418 7.14589 28.034 9.55389 28.034C11.0659 28.034 12.3539 27.656 13.4179 26.9C14.5099 26.144 15.0559 25.094 15.0559 23.75C15.0559 22.574 14.6919 21.552 13.9639 20.684C13.2359 19.816 12.0599 18.906 10.4359 17.954L5.26989 14.888C3.47789 13.824 2.20389 12.746 1.44789 11.654C0.719891 10.562 0.355891 9.232 0.355891 7.664C0.355891 5.508 1.09789 3.786 2.58189 2.498C4.09389 1.182 6.06789 0.523999 8.50389 0.523999C9.93189 0.523999 11.3459 0.733998 12.7459 1.154C14.1459 1.546 15.2939 2.134 16.1899 2.918C17.1139 3.674 17.5759 4.556 17.5759 5.564V10.058H16.8199C16.3439 7.258 15.4339 5.256 14.0899 4.052C12.7739 2.82 10.9119 2.204 8.50389 2.204C7.21589 2.204 6.08189 2.596 5.10189 3.38C4.12189 4.164 3.63189 5.186 3.63189 6.446C3.63189 7.594 3.98189 8.546 4.68189 9.302C5.40989 10.058 6.61389 10.94 8.29389 11.948L13.4599 15.014C15.3639 16.162 16.7079 17.226 17.4919 18.206C18.2759 19.186 18.6679 20.432 18.6679 21.944C18.6679 24.296 17.8839 26.186 16.3159 27.614C14.7479 29.014 12.6199 29.714 9.93189 29.714ZM35.3504 29.42C32.6624 29.42 30.5344 28.972 28.9664 28.076C27.3984 27.152 26.2784 25.794 25.6064 24.002C24.9624 22.21 24.6404 19.886 24.6404 17.03V6.32C24.6404 4.892 24.4444 3.842 24.0524 3.17C23.6604 2.47 22.8764 2.12 21.7004 2.12H20.8604V1.28H24.6404C25.6764 1.28 26.4464 1.42 26.9504 1.7C27.4824 1.952 27.8604 2.428 28.0844 3.128C28.3084 3.828 28.4204 4.892 28.4204 6.32V18.29C28.4204 21.398 28.9944 23.75 30.1424 25.346C31.2904 26.942 33.1944 27.74 35.8544 27.74C37.9824 27.74 39.6624 27.362 40.8944 26.606C42.1544 25.85 43.0504 24.702 43.5824 23.162C44.1144 21.622 44.3804 19.578 44.3804 17.03V1.28H46.0604V17.03C46.0604 19.942 45.7524 22.294 45.1364 24.086C44.5204 25.85 43.4284 27.18 41.8604 28.076C40.3204 28.972 38.1504 29.42 35.3504 29.42ZM61.1604 29.714C59.6204 29.714 58.1084 29.504 56.6244 29.084C55.1404 28.664 53.9224 28.062 52.9704 27.278C52.0464 26.494 51.5844 25.598 51.5844 24.59V20.096H52.3404C52.8164 22.896 53.7404 24.926 55.1124 26.186C56.4844 27.418 58.3744 28.034 60.7824 28.034C62.2944 28.034 63.5824 27.656 64.6464 26.9C65.7384 26.144 66.2844 25.094 66.2844 23.75C66.2844 22.574 65.9204 21.552 65.1924 20.684C64.4644 19.816 63.2884 18.906 61.6644 17.954L56.4984 14.888C54.7064 13.824 53.4324 12.746 52.6764 11.654C51.9484 10.562 51.5844 9.232 51.5844 7.664C51.5844 5.508 52.3264 3.786 53.8104 2.498C55.3224 1.182 57.2964 0.523999 59.7324 0.523999C61.1604 0.523999 62.5744 0.733998 63.9744 1.154C65.3744 1.546 66.5224 2.134 67.4184 2.918C68.3424 3.674 68.8044 4.556 68.8044 5.564V10.058H68.0484C67.5724 7.258 66.6624 5.256 65.3184 4.052C64.0024 2.82 62.1404 2.204 59.7324 2.204C58.4444 2.204 57.3104 2.596 56.3304 3.38C55.3504 4.164 54.8604 5.186 54.8604 6.446C54.8604 7.594 55.2104 8.546 55.9104 9.302C56.6384 10.058 57.8424 10.94 59.5224 11.948L64.6884 15.014C66.5924 16.162 67.9364 17.226 68.7204 18.206C69.5044 19.186 69.8964 20.432 69.8964 21.944C69.8964 24.296 69.1124 26.186 67.5444 27.614C65.9764 29.014 63.8484 29.714 61.1604 29.714ZM79.2289 29C78.1929 29 77.4089 28.874 76.8769 28.622C76.3729 28.342 76.0089 27.852 75.7849 27.152C75.5609 26.452 75.4489 25.388 75.4489 23.96V1.28H79.2289V23.96C79.2289 25.388 79.4249 26.452 79.8169 27.152C80.2089 27.824 80.9929 28.16 82.1689 28.16H83.0089V29H79.2289ZM88.1395 6.32C88.1395 4.892 87.9435 3.842 87.5515 3.17C87.1595 2.47 86.3755 2.12 85.1995 2.12H84.3595V1.28H102.252C104.632 1.28 105.822 2.4 105.822 4.64V7.79H104.982C104.982 4.57 103.232 2.96 99.7315 2.96H91.9195V13.88H103.26V15.56H91.9195V27.32H99.2695C101.202 27.32 102.714 26.97 103.806 26.27C104.898 25.57 105.766 24.38 106.41 22.7L107.25 22.91L105.78 26.9C105.276 28.3 104.226 29 102.63 29H88.1395V6.32ZM130.805 29.714C129.265 29.714 127.753 29.504 126.269 29.084C124.785 28.664 123.567 28.062 122.615 27.278C121.691 26.494 121.229 25.598 121.229 24.59V20.096H121.985C122.461 22.896 123.385 24.926 124.757 26.186C126.129 27.418 128.019 28.034 130.427 28.034C131.939 28.034 133.227 27.656 134.291 26.9C135.383 26.144 135.929 25.094 135.929 23.75C135.929 22.574 135.565 21.552 134.837 20.684C134.109 19.816 132.933 18.906 131.309 17.954L126.143 14.888C124.351 13.824 123.077 12.746 122.321 11.654C121.593 10.562 121.229 9.232 121.229 7.664C121.229 5.508 121.971 3.786 123.455 2.498C124.967 1.182 126.941 0.523999 129.377 0.523999C130.805 0.523999 132.219 0.733998 133.619 1.154C135.019 1.546 136.167 2.134 137.063 2.918C137.987 3.674 138.449 4.556 138.449 5.564V10.058H137.693C137.217 7.258 136.307 5.256 134.963 4.052C133.647 2.82 131.785 2.204 129.377 2.204C128.089 2.204 126.955 2.596 125.975 3.38C124.995 4.164 124.505 5.186 124.505 6.446C124.505 7.594 124.855 8.546 125.555 9.302C126.283 10.058 127.487 10.94 129.167 11.948L134.333 15.014C136.237 16.162 137.581 17.226 138.365 18.206C139.149 19.186 139.541 20.432 139.541 21.944C139.541 24.296 138.757 26.186 137.189 27.614C135.621 29.014 133.493 29.714 130.805 29.714ZM145.807 6.32C145.807 4.892 145.611 3.842 145.219 3.17C144.827 2.47 144.043 2.12 142.867 2.12H142.027V1.28H145.807C146.843 1.28 147.613 1.42 148.117 1.7C148.649 1.952 149.027 2.428 149.251 3.128C149.475 3.828 149.587 4.892 149.587 6.32V13.88H162.187V1.28H165.967V23.96C165.967 25.388 166.163 26.452 166.555 27.152C166.947 27.824 167.731 28.16 168.907 28.16H169.747V29H165.967C164.931 29 164.147 28.874 163.615 28.622C163.111 28.342 162.747 27.852 162.523 27.152C162.299 26.452 162.187 25.388 162.187 23.96V15.56H149.587V29H145.807V6.32ZM196.313 29.21C194.969 29.21 193.639 28.846 192.323 28.118C191.007 27.362 189.957 25.906 189.173 23.75L188.123 21.02H176.363L173.003 29H171.113L182.873 1.28H184.133L193.373 23.75C194.073 25.374 194.731 26.494 195.347 27.11C195.963 27.698 196.845 28.048 197.993 28.16V29C197.489 29.14 196.929 29.21 196.313 29.21ZM187.283 19.34L182.243 7.16L176.993 19.34H187.283ZM219.782 29.42C218.298 29.42 216.996 28.986 215.876 28.118C214.784 27.222 213.566 25.626 212.222 23.33L208.022 16.19H205.082V29H201.302V6.32C201.302 4.892 201.106 3.842 200.714 3.17C200.322 2.47 199.538 2.12 198.362 2.12H197.522V1.28H208.442C211.102 1.28 213.51 1.812 215.666 2.876C217.85 3.912 218.942 5.9 218.942 8.84C218.942 12.564 216.702 14.944 212.222 15.98L216.632 23.33C217.668 25.066 218.592 26.284 219.404 26.984C220.244 27.656 221.21 28.048 222.302 28.16V29C222.05 29.112 221.686 29.21 221.21 29.294C220.762 29.378 220.286 29.42 219.782 29.42ZM208.232 14.72C209.1 14.72 210.038 14.51 211.046 14.09C212.082 13.67 212.95 13.012 213.65 12.116C214.378 11.22 214.742 10.128 214.742 8.84C214.742 7.468 214.378 6.334 213.65 5.438C212.95 4.514 212.082 3.842 211.046 3.422C210.038 2.974 209.1 2.75 208.232 2.75C207.252 2.75 206.202 2.89 205.082 3.17V14.3C206.202 14.58 207.252 14.72 208.232 14.72ZM247.952 29.21C246.608 29.21 245.278 28.846 243.962 28.118C242.646 27.362 241.596 25.906 240.812 23.75L239.762 21.02H228.002L224.642 29H222.752L234.512 1.28H235.772L245.012 23.75C245.712 25.374 246.37 26.494 246.986 27.11C247.602 27.698 248.484 28.048 249.632 28.16V29C249.128 29.14 248.568 29.21 247.952 29.21ZM238.922 19.34L233.882 7.16L228.632 19.34H238.922ZM274.57 29.42C273.254 29.42 271.882 29.07 270.454 28.37C269.026 27.642 267.388 26.312 265.54 24.38L256.72 15.14V29H252.94V6.32C252.94 4.892 252.744 3.842 252.352 3.17C251.96 2.47 251.176 2.12 250 2.12H249.16V1.28H252.94C253.976 1.28 254.746 1.42 255.25 1.7C255.782 1.952 256.16 2.428 256.384 3.128C256.608 3.828 256.72 4.892 256.72 6.32V14.51L265.54 5.69L266.38 4.808C267.164 3.996 267.822 3.366 268.354 2.918C268.886 2.442 269.516 2.05 270.244 1.742C270.972 1.434 271.784 1.28 272.68 1.28H274.78V2.33C273.604 2.33 272.582 2.54 271.714 2.96C270.846 3.352 269.838 4.122 268.69 5.27L260.5 13.46L270.16 23.54C271.392 24.8 272.638 25.864 273.898 26.732C275.158 27.572 276.292 28.062 277.3 28.202V29C276.46 29.28 275.55 29.42 274.57 29.42ZM82.2048 58V41.2H88.4928C89.9168 41.2 91.1408 41.432 92.1648 41.896C93.1888 42.344 93.9728 43 94.5168 43.864C95.0768 44.712 95.3568 45.744 95.3568 46.96C95.3568 48.144 95.0768 49.168 94.5168 50.032C93.9728 50.88 93.1888 51.536 92.1648 52C91.1408 52.448 89.9168 52.672 88.4928 52.672H83.1888L83.9808 51.856V58H82.2048ZM93.6768 58L89.3568 51.904H91.2768L95.6208 58H93.6768ZM83.9808 52L83.1888 51.16H88.4448C90.1248 51.16 91.3968 50.792 92.2608 50.056C93.1408 49.32 93.5807 48.288 93.5807 46.96C93.5807 45.616 93.1408 44.576 92.2608 43.84C91.3968 43.104 90.1248 42.736 88.4448 42.736H83.1888L83.9808 41.896V52ZM105.933 48.712H114.813V50.224H105.933V48.712ZM106.125 56.464H116.229V58H104.349V41.2H115.869V42.736H106.125V56.464ZM122.515 58L130.195 41.2H131.947L139.627 58H137.755L130.699 42.232H131.419L124.363 58H122.515ZM125.539 53.512L126.067 52.072H135.835L136.363 53.512H125.539ZM147.206 58V41.2H148.982V56.464H158.39V58H147.206ZM167.833 58V42.736H161.929V41.2H175.513V42.736H169.609V58H167.833ZM187.041 58V51.76L187.449 52.864L180.321 41.2H182.217L188.481 51.448H187.473L193.737 41.2H195.513L188.385 52.864L188.793 51.76V58H187.041Z" fill="black"/>
</svg>
