<svg xmlns="http://www.w3.org/2000/svg" id="path940" viewBox="0 0 110 32">
  <path fill="#006AFF" d="m 14.098,6.364 c 0.103,-0.027 0.15,0.012 0.211,0.084 0.35,0.416 1.478,1.866 1.785,2.263 a 0.132,0.132 0 0 1 -0.027,0.19 c -2.274,1.873 -4.804,4.522 -6.214,6.42 -0.03,0.04 -0.005,0.043 0.015,0.034 2.456,-1.116 8.224,-2.897 10.826,-3.396 V 8.485 L 10.524,0 0.333,8.485 v 3.797 C 3.492,10.301 10.79,7.234 14.097,6.364 Z m 47.28,-5.183 h 4.475 v 22.332 h -4.475 z m -3.315,0 h -4.475 v 22.333 h 4.475 z m 29.713,7.72 h -4.421 l 4.477,14.615 h 4.117 l 1.124,-3.695 c 0.446,-1.468 1.19,-4.209 1.19,-4.209 a 0.034,0.034 0 0 1 0.033,-0.026 c 0.015,0 0.028,0.01 0.033,0.026 0,0 0.745,2.794 1.168,4.234 l 1.103,3.667 h 4.044 L 105.089,8.9 h -4.109 l -1.282,4.421 a 278.446,278.446 0 0 0 -1.141,4.213 0.034,0.034 0 0 1 -0.033,0.026 0.034,0.034 0 0 1 -0.033,-0.026 c 0,0 -0.69,-2.698 -1.137,-4.213 l -1.32,-4.42 h -3.266 l -1.344,4.42 c -0.421,1.414 -1.16,4.215 -1.16,4.215 a 0.034,0.034 0 0 1 -0.033,0.023 0.034,0.034 0 0 1 -0.032,-0.023 c 0,0 -0.714,-2.75 -1.142,-4.215 z m -19.708,7.356 c 0,-4.44 3.393,-7.729 7.544,-7.729 4.11,0 7.504,3.29 7.504,7.729 0,4.453 -3.392,7.743 -7.504,7.743 -4.15,0 -7.544,-3.29 -7.544,-7.74 z m 10.754,0 c 0,-2.174 -1.47,-3.654 -3.21,-3.654 -1.781,0 -3.25,1.48 -3.25,3.654 0,2.189 1.469,3.654 3.25,3.654 1.74,0 3.21,-1.465 3.21,-3.654 z M 27.702,3.247 v 4.306 h 7.909 c 0.032,0 0.044,0.032 0.028,0.06 l -7.94,14.242 -0.014,0.026 c -0.18,0.348 -0.223,0.432 -0.223,0.793 v 0.84 H 42.868 V 19.216 H 34.31 a 0.035,0.035 0 0 1 -0.032,-0.021 0.039,0.039 0 0 1 0.004,-0.04 L 42.314,4.726 42.336,4.68 c 0.056,-0.12 0.11,-0.232 0.11,-0.532 l 0.002,-0.9 H 27.702 Z M 47.955,1.581 c 1.395,0 2.548,1.188 2.548,2.651 0,1.464 -1.153,2.654 -2.548,2.654 -1.395,0 -2.547,-1.188 -2.547,-2.652 0,-1.464 1.152,-2.652 2.547,-2.652 z m -2.237,7.32 h 4.474 V 23.514 H 45.718 Z M 5.604,20.922 c 0.055,0.068 0.15,0.082 0.22,0.034 3.778,-2.054 12.089,-4.661 14.87,-5.16 v 7.806 H 0.334 v -8.11 c 2.093,-1.25 7.747,-3.814 9.737,-4.5 0.04,-0.014 0.046,-0.062 0.004,-0.086 -0.52,-0.306 -2.483,-1.597 -2.483,-1.597 a 0.134,0.134 0 0 1 -0.061,-0.106 z"/>
</svg>
